<svg width="390" height="390" viewBox="0 0 390 390" fill="none" xmlns="http://www.w3.org/2000/svg">
<rect width="390" height="390" fill="white"/>
<path fill-rule="evenodd" clip-rule="evenodd" d="M239.025 0H389.964V210.758L303.021 297.701C253.081 347.641 172.112 347.641 122.172 297.701C72.2321 247.762 72.2321 166.793 122.172 116.853L239.025 0Z" fill="#00C0CD"/>
<path fill-rule="evenodd" clip-rule="evenodd" d="M59.8603 290.742C70.2806 283.063 84.953 285.285 92.6321 295.705C93.1834 296.453 93.7416 297.196 94.3065 297.933C102.179 308.208 100.231 322.92 89.956 330.792C79.6809 338.665 64.9694 336.717 57.0971 326.442C56.3548 325.473 55.6213 324.497 54.8968 323.514C47.2177 313.093 49.4399 298.421 59.8603 290.742Z" fill="#FF004C"/>
<path fill-rule="evenodd" clip-rule="evenodd" d="M61.8344 121.032C73.8202 125.92 79.5742 139.599 74.6863 151.585C67.6429 168.856 63.75 187.772 63.75 207.656C63.75 223.511 66.2249 238.743 70.7923 253.011C74.7386 265.339 67.9438 278.532 55.6159 282.478C43.2879 286.424 30.0951 279.63 26.1488 267.302C20.1204 248.469 16.875 228.419 16.875 207.656C16.875 181.6 21.9859 156.679 31.2818 133.884C36.1697 121.898 49.8486 116.144 61.8344 121.032Z" fill="#FF9400"/>
</svg>
